<?xml version="1.0" standalone="no"?>
<!DOCTYPE svg PUBLIC "-//W3C//DTD SVG 20010904//EN"
 "http://www.w3.org/TR/2001/REC-SVG-20010904/DTD/svg10.dtd">
<svg version="1.0" xmlns="http://www.w3.org/2000/svg"
 width="600.000000pt" height="600.000000pt" viewBox="0 0 600.000000 600.000000"
 preserveAspectRatio="xMidYMid meet">
<metadata>
Created by potrace 1.11, written by Peter Selinger 2001-2013
</metadata>
<g transform="translate(0.000000,600.000000) scale(0.100000,-0.100000)"
fill="#000000" stroke="none">
<path d="M1322 4815 c-49 -41 -107 -267 -133 -514 -11 -107 -7 -458 7 -571 5
-42 2 -38 -56 70 -34 63 -89 155 -121 203 -56 84 -59 91 -59 150 -1 119 -36
233 -97 314 -14 18 -52 46 -86 63 -102 51 -206 40 -279 -28 l-28 -26 0 -178 0
-177 -55 38 c-97 68 -195 76 -301 25 -62 -29 -103 -83 -110 -145 -4 -41 2 -56
108 -244 l113 -201 200 -199 c142 -142 216 -223 252 -280 29 -44 63 -94 77
-110 35 -44 101 -73 176 -80 36 -3 175 -26 309 -51 204 -38 259 -52 330 -84
169 -77 299 -148 424 -233 193 -132 276 -167 389 -167 32 0 229 -20 438 -45
394 -46 420 -51 858 -162 l224 -56 -7 -35 c-3 -19 -1 -64 6 -101 11 -63 14
-68 67 -111 104 -83 514 -424 665 -552 55 -46 124 -101 154 -123 52 -39 57
-40 132 -40 69 0 83 3 122 29 50 33 927 915 947 953 9 15 11 38 8 58 -7 35
-57 81 -332 310 -60 50 -195 173 -301 275 -115 110 -214 196 -244 213 -54 28
-108 35 -153 17 -24 -9 -33 -2 -133 100 l-107 110 2 52 c3 66 -30 140 -115
253 -90 120 -174 194 -284 248 -176 86 -356 125 -609 134 l-165 5 -288 -57
-288 -58 -327 19 -326 19 -33 125 -33 125 35 130 c20 72 43 153 51 181 16 49
15 52 -6 95 -59 114 -100 149 -178 149 -61 0 -131 -52 -147 -110 -7 -25 -36
-127 -64 -226 l-51 -182 0 -190 c0 -177 -1 -191 -19 -197 -10 -3 -40 -21 -66
-40 -46 -32 -50 -33 -74 -19 -21 12 -27 24 -29 62 -5 79 -40 241 -78 362 l-36
116 32 95 c37 108 49 227 30 299 -9 34 -26 59 -72 103 -117 112 -206 143 -266
92z"/>
</g>
</svg>
